<?xml version="1.0" encoding="UTF-8" standalone="no"?>
<svg
   xmlns:dc="http://purl.org/dc/elements/1.1/"
   xmlns:cc="http://creativecommons.org/ns#"
   xmlns:rdf="http://www.w3.org/1999/02/22-rdf-syntax-ns#"
   xmlns:svg="http://www.w3.org/2000/svg"
   xmlns="http://www.w3.org/2000/svg"
   xmlns:sodipodi="http://sodipodi.sourceforge.net/DTD/sodipodi-0.dtd"
   xmlns:inkscape="http://www.inkscape.org/namespaces/inkscape"
   height="255.131"
   preserveAspectRatio="xMidYMid"
   viewBox="0 0 255.132 255.131"
   width="255.132"
   version="1.1"
   id="svg22"
   sodipodi:docname="Ansible_logo.svg"
   inkscape:version="0.92.5 (2060ec1f9f, 2020-04-08)">
  <metadata
     id="metadata28">
    <rdf:RDF>
      <cc:Work
         rdf:about="">
        <dc:format>image/svg+xml</dc:format>
        <dc:type
           rdf:resource="http://purl.org/dc/dcmitype/StillImage" />
      </cc:Work>
    </rdf:RDF>
  </metadata>
  <defs
     id="defs26" />
  <sodipodi:namedview
     pagecolor="#ffffff"
     bordercolor="#666666"
     borderopacity="1"
     objecttolerance="10"
     gridtolerance="10"
     guidetolerance="10"
     inkscape:pageopacity="0"
     inkscape:pageshadow="2"
     inkscape:window-width="2030"
     inkscape:window-height="1312"
     id="namedview24"
     showgrid="false"
     inkscape:zoom="0.74920635"
     inkscape:cx="-149.03937"
     inkscape:cy="97.933"
     inkscape:window-x="6"
     inkscape:window-y="24"
     inkscape:window-maximized="0"
     inkscape:current-layer="svg22" />
  <g
     id="g32"
     transform="translate(-0.747,-0.302)">
    <path
       id="path18"
       d="m 255.879,127.868 c 0,70.4551 -57.1101,127.565 -127.566,127.565 C 57.8629,255.433 0.747,198.3234 0.747,127.868 0.747,57.4179 57.8631,0.302 128.313,0.302 c 70.4561,0 127.566,57.1161 127.566,127.566"
       inkscape:connector-curvature="0"
       style="fill:#1a1918" />
    <path
       id="path20"
       d="M 130.46,78.2289 163.4716,159.7052 113.6081,120.4274 130.46,78.229 Z m 58.6445,100.245 -50.7786,-122.202 c -1.44952,-3.52436 -4.34807,-5.38926 -7.86591,-5.38926 -3.52436,0 -6.63386,1.86489 -8.08339,5.38926 l -55.7329,134.04 H 85.709 l 22.0623,-55.2653 65.8389,53.1899 c 2.64792,2.14114 4.55852,3.1095 7.0422,3.1095 4.97389,0 9.32146,-3.72878 9.32146,-9.11101 0,-0.87594 -0.30939,-2.2662 -0.86941,-3.76143 z"
       inkscape:connector-curvature="0"
       style="fill:#ffffff" />
  </g>
</svg>
