<?xml version="1.0" encoding="UTF-8" standalone="no"?>
<svg
   viewBox="0 0 197.28 233.09002"
   version="1.1"
   id="svg196"
   sodipodi:docname="scalesway.svg"
   width="197.28"
   height="233.09001"
   inkscape:version="1.2.1 (9c6d41e, 2022-07-14)"
   xmlns:inkscape="http://www.inkscape.org/namespaces/inkscape"
   xmlns:sodipodi="http://sodipodi.sourceforge.net/DTD/sodipodi-0.dtd"
   xmlns="http://www.w3.org/2000/svg"
   xmlns:svg="http://www.w3.org/2000/svg">
  <sodipodi:namedview
     id="namedview198"
     pagecolor="#ffffff"
     bordercolor="#000000"
     borderopacity="0.25"
     inkscape:showpageshadow="2"
     inkscape:pageopacity="0.0"
     inkscape:pagecheckerboard="0"
     inkscape:deskcolor="#d1d1d1"
     showgrid="false"
     inkscape:zoom="1.0124845"
     inkscape:cx="482.97037"
     inkscape:cy="118.0265"
     inkscape:window-width="1776"
     inkscape:window-height="1079"
     inkscape:window-x="12"
     inkscape:window-y="50"
     inkscape:window-maximized="0"
     inkscape:current-layer="Calque_1-2" />
  <defs
     id="defs184">
    <style
       id="style182">.cls-1{fill:#510098}</style>
  </defs>
  <g
     id="Calque_2"
     data-name="Calque 2">
    <g
       id="Calque_1-2"
       data-name="Calque 1">
      <g
         id="g488">
        <path
           class="cls-1"
           d="m 90.21,179.94 h 38.41 a 17.42,17.42 0 0 0 15.31,-16.45 v -55.41 a 13.32,13.32 0 1 0 -26.64,0 v 35.21 a 10,10 0 0 1 -10,10 H 89.88 a 13.32,13.32 0 0 0 -13.31,13.5 13.53,13.53 0 0 0 13.64,13.15 z M 107.53,53.44 H 69.11 A 17.42,17.42 0 0 0 53.8,69.89 v 55.4 a 13.32,13.32 0 1 0 26.64,0 v -35.2 a 10,10 0 0 1 10,-10 h 17.4 a 13.32,13.32 0 0 0 13.31,-13.5 13.52,13.52 0 0 0 -13.62,-13.15 z"
           id="path186" />
        <path
           class="cls-1"
           d="M 114,26.64 H 44.15 c -9.670506,0 -17.51,7.839494 -17.51,17.51 v 105.66 c 0,31.27589 25.354115,56.63 56.63,56.63 h 72.39 c 7.58994,-0.98196 13.65288,-6.79752 14.95,-14.34 V 83.24 C 170.57142,51.992774 145.24723,26.67306 114,26.64 m 83.28,56.6 v 110.6 c -2.27496,21.05085 -19.17729,37.52098 -40.28,39.25 H 83.27 C 37.281249,233.09 0,195.80875 0,149.82 V 44.15 C 0,19.766628 19.766628,0 44.15,0 H 114 c 45.9878,-0.0220989 83.28001,37.252192 83.28,83.24 z"
           id="path188"
           sodipodi:nodetypes="cssssccccsccsssscs" />
      </g>
    </g>
  </g>
</svg>
