<?xml version="1.0" encoding="UTF-8" standalone="no"?>
<svg
   xmlns:dc="http://purl.org/dc/elements/1.1/"
   xmlns:cc="http://creativecommons.org/ns#"
   xmlns:rdf="http://www.w3.org/1999/02/22-rdf-syntax-ns#"
   xmlns:svg="http://www.w3.org/2000/svg"
   xmlns="http://www.w3.org/2000/svg"
   xmlns:sodipodi="http://sodipodi.sourceforge.net/DTD/sodipodi-0.dtd"
   xmlns:inkscape="http://www.inkscape.org/namespaces/inkscape"
   version="1.1"
   viewBox="0 0 1250 967.88873"
   id="svg4760"
   sodipodi:docname="mkdocs_template_logo.svg"
   width="1250"
   height="967.88873"
   inkscape:version="0.92.5 (2060ec1f9f, 2020-04-08)">
  <metadata
     id="metadata4766">
    <rdf:RDF>
      <cc:Work
         rdf:about="">
        <dc:format>image/svg+xml</dc:format>
        <dc:type
           rdf:resource="http://purl.org/dc/dcmitype/StillImage" />
        <dc:title />
      </cc:Work>
    </rdf:RDF>
  </metadata>
  <defs
     id="defs4764" />
  <sodipodi:namedview
     pagecolor="#ffffff"
     bordercolor="#666666"
     borderopacity="1"
     objecttolerance="10"
     gridtolerance="10"
     guidetolerance="10"
     inkscape:pageopacity="0"
     inkscape:pageshadow="2"
     inkscape:window-width="2030"
     inkscape:window-height="648"
     id="namedview4762"
     showgrid="false"
     inkscape:zoom="0.29344931"
     inkscape:cx="-549.79311"
     inkscape:cy="527.58136"
     inkscape:window-x="6"
     inkscape:window-y="688"
     inkscape:window-maximized="0"
     inkscape:current-layer="svg4760" />
  <g
     id="g4988"
     transform="matrix(0.87409674,0,0,0.87409674,-396.65517,-470.11304)">
    <rect
       style="fill:#004455;fill-rule:evenodd;stroke:#004455;stroke-width:16.41740227;stroke-linecap:round"
       id="rect4672"
       ry="1.4669591"
       height="728.01666"
       width="223.46336"
       y="546.03595"
       x="935.35498" />
    <rect
       style="fill:#80e5ff;fill-rule:evenodd;stroke:#00aa88;stroke-width:16.41740227;stroke-linecap:round"
       id="rect4674"
       ry="1.3148954"
       height="504.80328"
       width="130.64072"
       y="598.1051"
       x="977.04626" />
    <ellipse
       ry="46.183907"
       rx="46.235619"
       style="fill:#00aa88;fill-rule:evenodd;stroke:#004455;stroke-width:16.41740227;stroke-linecap:round"
       id="circle4676"
       cy="1194.0358"
       cx="1047.0867" />
    <rect
       x="1004.5499"
       y="655.48639"
       width="75.633553"
       height="20.604357"
       ry="1.4669591"
       id="rect4678"
       style="fill:#004455;fill-rule:evenodd;stroke:#00aa88;stroke-width:16.41740227;stroke-linecap:round" />
    <rect
       x="1004.5499"
       y="708.26801"
       width="75.633553"
       height="20.604357"
       ry="1.4669591"
       id="rect4680"
       style="fill:#004455;fill-rule:evenodd;stroke:#00aa88;stroke-width:16.41740227;stroke-linecap:round" />
    <rect
       x="1004.5499"
       y="761.04962"
       width="75.633553"
       height="20.604357"
       ry="1.4669591"
       id="rect4682"
       style="fill:#004455;fill-rule:evenodd;stroke:#00aa88;stroke-width:16.41740227;stroke-linecap:round" />
    <rect
       x="1004.5499"
       y="813.83124"
       width="75.633553"
       height="20.604357"
       ry="1.4669591"
       id="rect4684"
       style="fill:#004455;fill-rule:evenodd;stroke:#00aa88;stroke-width:16.41740227;stroke-linecap:round" />
    <rect
       x="1004.5499"
       y="866.61279"
       width="75.633553"
       height="20.604357"
       ry="1.4669591"
       id="rect4686"
       style="fill:#004455;fill-rule:evenodd;stroke:#00aa88;stroke-width:16.41740227;stroke-linecap:round" />
    <rect
       x="1004.5499"
       y="972.17603"
       width="75.633553"
       height="20.604357"
       ry="1.4669591"
       id="rect4688"
       style="fill:#004455;fill-rule:evenodd;stroke:#00aa88;stroke-width:16.41740227;stroke-linecap:round" />
    <rect
       x="1004.5499"
       y="919.39441"
       width="75.633553"
       height="20.604357"
       ry="1.4669591"
       id="rect4690"
       style="fill:#004455;fill-rule:evenodd;stroke:#00aa88;stroke-width:16.41740227;stroke-linecap:round" />
    <rect
       x="1004.5499"
       y="1024.9576"
       width="75.633553"
       height="20.604357"
       ry="1.4669591"
       id="rect4692"
       style="fill:#004455;fill-rule:evenodd;stroke:#00aa88;stroke-width:16.41740227;stroke-linecap:round" />
    <rect
       style="fill:#00aa88;fill-rule:evenodd;stroke:#004455;stroke-width:16.41740227;stroke-linecap:round"
       id="rect4698"
       ry="1.4669591"
       height="728.01666"
       width="223.46336"
       y="546.04388"
       x="1228.2319" />
    <rect
       style="fill:#80e5ff;fill-rule:evenodd;stroke:#004455;stroke-width:16.41740227;stroke-linecap:round"
       id="rect4700"
       ry="1.3148954"
       height="504.80328"
       width="130.64072"
       y="598.11292"
       x="1269.8969" />
    <ellipse
       ry="46.183907"
       rx="46.235619"
       style="fill:#00aa88;fill-rule:evenodd;stroke:#004455;stroke-width:16.41740227;stroke-linecap:round"
       id="circle4702"
       cy="1194.0436"
       cx="1339.9636" />
    <rect
       style="fill:#004455;fill-rule:evenodd;stroke:#00aa88;stroke-width:16.41740227;stroke-linecap:round"
       id="rect4704"
       ry="1.4669591"
       height="20.604357"
       width="75.633553"
       y="655.48645"
       x="1297.4004" />
    <rect
       style="fill:#004455;fill-rule:evenodd;stroke:#00aa88;stroke-width:16.41740227;stroke-linecap:round"
       id="rect4706"
       ry="1.4669591"
       height="20.604357"
       width="75.633553"
       y="708.26807"
       x="1297.4004" />
    <rect
       style="fill:#004455;fill-rule:evenodd;stroke:#00aa88;stroke-width:16.41740227;stroke-linecap:round"
       id="rect4708"
       ry="1.4669591"
       height="20.604357"
       width="75.633553"
       y="761.04968"
       x="1297.4004" />
    <rect
       style="fill:#004455;fill-rule:evenodd;stroke:#00aa88;stroke-width:16.41740227;stroke-linecap:round"
       id="rect4710"
       ry="1.4669591"
       height="20.604357"
       width="75.633553"
       y="813.8313"
       x="1297.4004" />
    <rect
       style="fill:#004455;fill-rule:evenodd;stroke:#00aa88;stroke-width:16.41740227;stroke-linecap:round"
       id="rect4712"
       ry="1.4669591"
       height="20.604357"
       width="75.633553"
       y="866.61292"
       x="1297.4004" />
    <rect
       style="fill:#004455;fill-rule:evenodd;stroke:#00aa88;stroke-width:16.41740227;stroke-linecap:round"
       id="rect4714"
       ry="1.4669591"
       height="20.604357"
       width="75.633553"
       y="972.17609"
       x="1297.4004" />
    <rect
       style="fill:#004455;fill-rule:evenodd;stroke:#00aa88;stroke-width:16.41740227;stroke-linecap:round"
       id="rect4716"
       ry="1.4669591"
       height="20.604357"
       width="75.633553"
       y="919.39453"
       x="1297.4004" />
    <rect
       style="fill:#004455;fill-rule:evenodd;stroke:#00aa88;stroke-width:16.41740227;stroke-linecap:round"
       id="rect4718"
       ry="1.4669591"
       height="20.604357"
       width="75.633553"
       y="1024.9578"
       x="1297.4004" />
    <rect
       x="642.48505"
       y="546.04388"
       width="223.46336"
       height="728.01666"
       ry="1.4669591"
       id="rect4722"
       style="fill:#80e5ff;fill-rule:evenodd;stroke:#004455;stroke-width:16.41740227;stroke-linecap:round" />
    <rect
       x="688.90558"
       y="676.52002"
       width="130.64072"
       height="467.03806"
       ry="1.2165104"
       id="rect4724"
       style="fill:#004455;fill-rule:evenodd;stroke:#00aa88;stroke-width:16.41740227;stroke-linecap:round" />
    <ellipse
       ry="39.586205"
       rx="39.630531"
       cx="754.21674"
       cy="607.85126"
       id="circle4726"
       style="fill:#00aa88;fill-rule:evenodd;stroke:#004455;stroke-width:16.41740227;stroke-linecap:round" />
    <ellipse
       ry="39.586205"
       rx="39.630531"
       cx="754.21674"
       cy="1212.2533"
       id="circle4728"
       style="fill:#00aa88;fill-rule:evenodd;stroke:#004455;stroke-width:16.41740227;stroke-linecap:round" />
    <rect
       x="716.40955"
       y="712.17401"
       width="75.633553"
       height="20.604357"
       ry="1.4669591"
       id="rect4732"
       style="fill:#55ddff;fill-rule:evenodd;stroke:#00aa88;stroke-width:16.41740227;stroke-linecap:round" />
    <rect
       x="716.40955"
       y="764.95563"
       width="75.633553"
       height="20.604357"
       ry="1.4669591"
       id="rect4734"
       style="fill:#55ddff;fill-rule:evenodd;stroke:#00aa88;stroke-width:16.41740227;stroke-linecap:round" />
    <rect
       x="716.40955"
       y="817.73724"
       width="75.633553"
       height="20.604357"
       ry="1.4669591"
       id="rect4736"
       style="fill:#55ddff;fill-rule:evenodd;stroke:#00aa88;stroke-width:16.41740227;stroke-linecap:round" />
    <rect
       x="716.40955"
       y="870.51886"
       width="75.633553"
       height="20.604357"
       ry="1.4669591"
       id="rect4738"
       style="fill:#55ddff;fill-rule:evenodd;stroke:#00aa88;stroke-width:16.41740227;stroke-linecap:round" />
    <rect
       x="716.40955"
       y="923.30048"
       width="75.633553"
       height="20.604357"
       ry="1.4669591"
       id="rect4740"
       style="fill:#55ddff;fill-rule:evenodd;stroke:#00aa88;stroke-width:16.41740227;stroke-linecap:round" />
    <rect
       x="716.40955"
       y="976.08203"
       width="75.633553"
       height="20.604357"
       ry="1.4669591"
       id="rect4742"
       style="fill:#55ddff;fill-rule:evenodd;stroke:#00aa88;stroke-width:16.41740227;stroke-linecap:round" />
    <rect
       x="716.40955"
       y="1028.8636"
       width="75.633553"
       height="20.604357"
       ry="1.4669591"
       id="rect4744"
       style="fill:#55ddff;fill-rule:evenodd;stroke:#00aa88;stroke-width:16.41740227;stroke-linecap:round" />
    <rect
       x="716.40955"
       y="1081.6453"
       width="75.633553"
       height="20.604357"
       ry="1.4669591"
       id="rect4746"
       style="fill:#55ddff;fill-rule:evenodd;stroke:#00aa88;stroke-width:16.41740227;stroke-linecap:round" />
    <rect
       x="461.99734"
       y="1285.6647"
       width="1127.6207"
       height="65.245979"
       ry="32.624313"
       id="rect4752"
       style="fill:#00aa88;fill-rule:evenodd;stroke:#004455;stroke-width:16.41740227;stroke-linecap:round" />
  </g>
  <g
     id="g2161"
     transform="matrix(1.4455056,0,0,1.4455056,638.61638,-441.93303)">
    <path
       sodipodi:nodetypes="ccccc"
       id="path4-3"
       d="m 156.93915,76.592584 c 22.84704,2.62334 39.24036,23.2709 36.61834,46.116866 -2.62335,22.84704 -23.2709,39.24036 -46.11688,36.61834 -22.84703,-2.62335 -39.24035,-23.2709 -36.61833,-46.11688 2.62334,-22.847026 23.2709,-39.240346 46.11687,-36.618326 z"
       inkscape:connector-curvature="0"
       style="fill:#0d47a1;fill-opacity:1;stroke-width:0.26458332"
       transform="matrix(3.7795276,0,0,3.7795276,-325.20043,356.53121)" />
    <path
       id="path4"
       d="M 269.73,630.56 C 174.844,619.665 89.09,687.754 78.2,782.64 67.305,877.526 135.394,963.28 230.28,974.17 325.166,985.06 410.92,916.976 421.81,822.09 432.705,727.204 364.616,641.45 269.73,630.56 Z m -1.7746,15.455 c 86.351,9.915 148.31,87.953 138.4,174.3 -9.915,86.351 -87.953,148.31 -174.3,138.4 -86.351,-9.915 -148.31,-87.953 -138.4,-174.3 9.915,-86.351 87.953,-148.31 174.3,-138.4 z"
       inkscape:connector-curvature="0"
       style="fill:#4caf50;fill-opacity:1" />
    <path
       id="path6"
       d="m 345.92,701 a 2.462,2.462 0 0 0 -1.7766,0.71991 2.462,2.462 0 0 0 -0.45258,2.8523 l -4.4437,4.4437 c -7.4842,2.4304 -44.035,14.754 -61.222,29.083 -18.152,15.133 -42.419,44.599 -61.231,59.113 l -24.549,7.2286 c 5.5805,-9.6894 8.2454,-20.185 8.2454,-20.185 0,0 -12.886,3.1428 -23.239,10.001 -9.119,6.0407 -28.758,25.3 -33.535,30.026 l -1.4946,-1.4946 -3.869,3.869 2.6923,2.6923 c -0.61622,0.99132 -7.0276,11.315 -10.02,17.076 -2.2672,4.3652 -4.3616,11.658 -4.3616,11.658 0,0 7.2924,-2.0944 11.658,-4.3616 5.7611,-2.9923 16.085,-9.4037 17.076,-10.02 l 2.6923,2.6923 3.869,-3.869 -1.503,-1.503 c 0.94052,-0.95587 1.5333,-1.5478 3.688,-3.7743 l 12.498,2.3724 c 16.957,3.2194 5.0444,21.217 8.4559,24.629 3.4114,3.4114 21.411,-8.5009 24.631,8.4559 l 2.3702,12.479 c -2.2274,2.1636 -2.8208,2.7595 -3.7764,3.7027 l -1.4504,-1.4504 -3.8711,3.8711 2.6923,2.6923 c -0.6171,0.99272 -7.0258,11.315 -10.018,17.076 -2.2672,4.3652 -4.3616,11.656 -4.3616,11.656 0,0 7.2903,-2.0944 11.656,-4.3616 5.7608,-2.9921 16.085,-9.4008 17.078,-10.018 l 2.6902,2.6902 3.869,-3.869 -1.5451,-1.5451 c 4.7182,-4.7879 23.94,-24.464 29.961,-33.602 6.8353,-10.376 10.068,-23.17 10.068,-23.17 0,0 -10.489,2.5697 -20.145,8.1085 l 7.1887,-24.412 c 14.514,-18.812 43.98,-43.078 59.113,-61.231 14.329,-17.187 26.653,-53.738 29.083,-61.222 l 4.4437,-4.4437 a 2.462,2.462 0 0 0 2.8523,-0.45257 2.462,2.462 0 0 0 0,-3.4817 2.462,2.462 0 0 0 -1.7051,-0.71991 z m -55.872,46.521 a 11.951,11.951 0 0 1 8.277,3.5007 11.951,11.951 0 0 1 0,16.901 11.951,11.951 0 0 1 -16.903,0 11.951,11.951 0 0 1 0,-16.901 11.951,11.951 0 0 1 8.6264,-3.5007 z m -146.42,84.409 9.1905,9.1905 c -1.406,0.8014 -6.2265,3.5409 -9.6831,5.3362 -2.8977,1.505 -8.6558,3.8122 -8.6558,3.8122 0,0 2.3093,-5.7582 3.8143,-8.6559 1.7953,-3.4566 4.533,-8.2771 5.3341,-9.6831 z m 64.649,64.652 9.1884,9.1863 c -1.4072,0.80206 -6.2251,3.5412 -9.681,5.3362 -2.8977,1.505 -8.6558,3.8122 -8.6559,3.8122 0,0 2.3072,-5.756 3.8122,-8.6537 1.7947,-3.4554 4.5335,-8.2726 5.3362,-9.681 z"
       inkscape:connector-curvature="0"
       style="fill:#4caf50;fill-opacity:1;fill-rule:evenodd" />
  </g>
</svg>
