<?xml version="1.0" encoding="UTF-8" standalone="no"?>
<svg
   xmlns:dc="http://purl.org/dc/elements/1.1/"
   xmlns:cc="http://creativecommons.org/ns#"
   xmlns:rdf="http://www.w3.org/1999/02/22-rdf-syntax-ns#"
   xmlns:svg="http://www.w3.org/2000/svg"
   xmlns="http://www.w3.org/2000/svg"
   xmlns:sodipodi="http://sodipodi.sourceforge.net/DTD/sodipodi-0.dtd"
   xmlns:inkscape="http://www.inkscape.org/namespaces/inkscape"
   version="1.1"
   viewBox="0 0 1400 1400"
   id="svg4760"
   sodipodi:docname="mkdocs_template_rdeville_logo.svg"
   width="1400"
   height="1400"
   inkscape:version="0.92.5 (2060ec1f9f, 2020-04-08)">
  <metadata
     id="metadata4766">
    <rdf:RDF>
      <cc:Work
         rdf:about="">
        <dc:format>image/svg+xml</dc:format>
        <dc:type
           rdf:resource="http://purl.org/dc/dcmitype/StillImage" />
        <dc:title />
      </cc:Work>
    </rdf:RDF>
  </metadata>
  <defs
     id="defs4764" />
  <sodipodi:namedview
     pagecolor="#ffffff"
     bordercolor="#666666"
     borderopacity="1"
     objecttolerance="10"
     gridtolerance="10"
     guidetolerance="10"
     inkscape:pageopacity="0"
     inkscape:pageshadow="2"
     inkscape:window-width="1007"
     inkscape:window-height="1312"
     id="namedview4762"
     showgrid="false"
     inkscape:zoom="0.22627417"
     inkscape:cx="749.64435"
     inkscape:cy="-150.17544"
     inkscape:window-x="6"
     inkscape:window-y="24"
     inkscape:window-maximized="0"
     inkscape:current-layer="svg4760" />
  <g
     id="g1573"
     transform="translate(-111.92372,216.05563)">
    <g
       transform="matrix(0.87409674,0,0,0.87409674,-134.73145,-470.11304)"
       id="g4988">
      <rect
         x="935.35498"
         y="546.03595"
         width="223.46336"
         height="728.01666"
         ry="1.4669591"
         id="rect4672"
         style="fill:#004455;fill-rule:evenodd;stroke:#004455;stroke-width:16.41740227;stroke-linecap:round" />
      <rect
         x="977.04626"
         y="598.1051"
         width="130.64072"
         height="504.80328"
         ry="1.3148954"
         id="rect4674"
         style="fill:#80e5ff;fill-rule:evenodd;stroke:#00aa88;stroke-width:16.41740227;stroke-linecap:round" />
      <ellipse
         cx="1047.0867"
         cy="1194.0358"
         id="circle4676"
         style="fill:#00aa88;fill-rule:evenodd;stroke:#004455;stroke-width:16.41740227;stroke-linecap:round"
         rx="46.235619"
         ry="46.183907" />
      <rect
         style="fill:#004455;fill-rule:evenodd;stroke:#00aa88;stroke-width:16.41740227;stroke-linecap:round"
         id="rect4678"
         ry="1.4669591"
         height="20.604357"
         width="75.633553"
         y="655.48639"
         x="1004.5499" />
      <rect
         style="fill:#004455;fill-rule:evenodd;stroke:#00aa88;stroke-width:16.41740227;stroke-linecap:round"
         id="rect4680"
         ry="1.4669591"
         height="20.604357"
         width="75.633553"
         y="708.26801"
         x="1004.5499" />
      <rect
         style="fill:#004455;fill-rule:evenodd;stroke:#00aa88;stroke-width:16.41740227;stroke-linecap:round"
         id="rect4682"
         ry="1.4669591"
         height="20.604357"
         width="75.633553"
         y="761.04962"
         x="1004.5499" />
      <rect
         style="fill:#004455;fill-rule:evenodd;stroke:#00aa88;stroke-width:16.41740227;stroke-linecap:round"
         id="rect4684"
         ry="1.4669591"
         height="20.604357"
         width="75.633553"
         y="813.83124"
         x="1004.5499" />
      <rect
         style="fill:#004455;fill-rule:evenodd;stroke:#00aa88;stroke-width:16.41740227;stroke-linecap:round"
         id="rect4686"
         ry="1.4669591"
         height="20.604357"
         width="75.633553"
         y="866.61279"
         x="1004.5499" />
      <rect
         style="fill:#004455;fill-rule:evenodd;stroke:#00aa88;stroke-width:16.41740227;stroke-linecap:round"
         id="rect4688"
         ry="1.4669591"
         height="20.604357"
         width="75.633553"
         y="972.17603"
         x="1004.5499" />
      <rect
         style="fill:#004455;fill-rule:evenodd;stroke:#00aa88;stroke-width:16.41740227;stroke-linecap:round"
         id="rect4690"
         ry="1.4669591"
         height="20.604357"
         width="75.633553"
         y="919.39441"
         x="1004.5499" />
      <rect
         style="fill:#004455;fill-rule:evenodd;stroke:#00aa88;stroke-width:16.41740227;stroke-linecap:round"
         id="rect4692"
         ry="1.4669591"
         height="20.604357"
         width="75.633553"
         y="1024.9576"
         x="1004.5499" />
      <rect
         x="1228.2319"
         y="546.04388"
         width="223.46336"
         height="728.01666"
         ry="1.4669591"
         id="rect4698"
         style="fill:#00aa88;fill-rule:evenodd;stroke:#004455;stroke-width:16.41740227;stroke-linecap:round" />
      <rect
         x="1269.8969"
         y="598.11292"
         width="130.64072"
         height="504.80328"
         ry="1.3148954"
         id="rect4700"
         style="fill:#80e5ff;fill-rule:evenodd;stroke:#004455;stroke-width:16.41740227;stroke-linecap:round" />
      <ellipse
         cx="1339.9636"
         cy="1194.0436"
         id="circle4702"
         style="fill:#00aa88;fill-rule:evenodd;stroke:#004455;stroke-width:16.41740227;stroke-linecap:round"
         rx="46.235619"
         ry="46.183907" />
      <rect
         x="1297.4004"
         y="655.48645"
         width="75.633553"
         height="20.604357"
         ry="1.4669591"
         id="rect4704"
         style="fill:#004455;fill-rule:evenodd;stroke:#00aa88;stroke-width:16.41740227;stroke-linecap:round" />
      <rect
         x="1297.4004"
         y="708.26807"
         width="75.633553"
         height="20.604357"
         ry="1.4669591"
         id="rect4706"
         style="fill:#004455;fill-rule:evenodd;stroke:#00aa88;stroke-width:16.41740227;stroke-linecap:round" />
      <rect
         x="1297.4004"
         y="761.04968"
         width="75.633553"
         height="20.604357"
         ry="1.4669591"
         id="rect4708"
         style="fill:#004455;fill-rule:evenodd;stroke:#00aa88;stroke-width:16.41740227;stroke-linecap:round" />
      <rect
         x="1297.4004"
         y="813.8313"
         width="75.633553"
         height="20.604357"
         ry="1.4669591"
         id="rect4710"
         style="fill:#004455;fill-rule:evenodd;stroke:#00aa88;stroke-width:16.41740227;stroke-linecap:round" />
      <rect
         x="1297.4004"
         y="866.61292"
         width="75.633553"
         height="20.604357"
         ry="1.4669591"
         id="rect4712"
         style="fill:#004455;fill-rule:evenodd;stroke:#00aa88;stroke-width:16.41740227;stroke-linecap:round" />
      <rect
         x="1297.4004"
         y="972.17609"
         width="75.633553"
         height="20.604357"
         ry="1.4669591"
         id="rect4714"
         style="fill:#004455;fill-rule:evenodd;stroke:#00aa88;stroke-width:16.41740227;stroke-linecap:round" />
      <rect
         x="1297.4004"
         y="919.39453"
         width="75.633553"
         height="20.604357"
         ry="1.4669591"
         id="rect4716"
         style="fill:#004455;fill-rule:evenodd;stroke:#00aa88;stroke-width:16.41740227;stroke-linecap:round" />
      <rect
         x="1297.4004"
         y="1024.9578"
         width="75.633553"
         height="20.604357"
         ry="1.4669591"
         id="rect4718"
         style="fill:#004455;fill-rule:evenodd;stroke:#00aa88;stroke-width:16.41740227;stroke-linecap:round" />
      <rect
         style="fill:#80e5ff;fill-rule:evenodd;stroke:#004455;stroke-width:16.41740227;stroke-linecap:round"
         id="rect4722"
         ry="1.4669591"
         height="728.01666"
         width="223.46336"
         y="546.04388"
         x="642.48505" />
      <rect
         style="fill:#004455;fill-rule:evenodd;stroke:#00aa88;stroke-width:16.41740227;stroke-linecap:round"
         id="rect4724"
         ry="1.2165104"
         height="467.03806"
         width="130.64072"
         y="676.52002"
         x="688.90558" />
      <ellipse
         style="fill:#00aa88;fill-rule:evenodd;stroke:#004455;stroke-width:16.41740227;stroke-linecap:round"
         id="circle4726"
         cy="607.85126"
         cx="754.21674"
         rx="39.630531"
         ry="39.586205" />
      <ellipse
         style="fill:#00aa88;fill-rule:evenodd;stroke:#004455;stroke-width:16.41740227;stroke-linecap:round"
         id="circle4728"
         cy="1212.2533"
         cx="754.21674"
         rx="39.630531"
         ry="39.586205" />
      <rect
         style="fill:#55ddff;fill-rule:evenodd;stroke:#00aa88;stroke-width:16.41740227;stroke-linecap:round"
         id="rect4732"
         ry="1.4669591"
         height="20.604357"
         width="75.633553"
         y="712.17401"
         x="716.40955" />
      <rect
         style="fill:#55ddff;fill-rule:evenodd;stroke:#00aa88;stroke-width:16.41740227;stroke-linecap:round"
         id="rect4734"
         ry="1.4669591"
         height="20.604357"
         width="75.633553"
         y="764.95563"
         x="716.40955" />
      <rect
         style="fill:#55ddff;fill-rule:evenodd;stroke:#00aa88;stroke-width:16.41740227;stroke-linecap:round"
         id="rect4736"
         ry="1.4669591"
         height="20.604357"
         width="75.633553"
         y="817.73724"
         x="716.40955" />
      <rect
         style="fill:#55ddff;fill-rule:evenodd;stroke:#00aa88;stroke-width:16.41740227;stroke-linecap:round"
         id="rect4738"
         ry="1.4669591"
         height="20.604357"
         width="75.633553"
         y="870.51886"
         x="716.40955" />
      <rect
         style="fill:#55ddff;fill-rule:evenodd;stroke:#00aa88;stroke-width:16.41740227;stroke-linecap:round"
         id="rect4740"
         ry="1.4669591"
         height="20.604357"
         width="75.633553"
         y="923.30048"
         x="716.40955" />
      <rect
         style="fill:#55ddff;fill-rule:evenodd;stroke:#00aa88;stroke-width:16.41740227;stroke-linecap:round"
         id="rect4742"
         ry="1.4669591"
         height="20.604357"
         width="75.633553"
         y="976.08203"
         x="716.40955" />
      <rect
         style="fill:#55ddff;fill-rule:evenodd;stroke:#00aa88;stroke-width:16.41740227;stroke-linecap:round"
         id="rect4744"
         ry="1.4669591"
         height="20.604357"
         width="75.633553"
         y="1028.8636"
         x="716.40955" />
      <rect
         style="fill:#55ddff;fill-rule:evenodd;stroke:#00aa88;stroke-width:16.41740227;stroke-linecap:round"
         id="rect4746"
         ry="1.4669591"
         height="20.604357"
         width="75.633553"
         y="1081.6453"
         x="716.40955" />
      <rect
         style="fill:#00aa88;fill-rule:evenodd;stroke:#004455;stroke-width:16.41740227;stroke-linecap:round"
         id="rect4752"
         ry="32.624313"
         height="65.245979"
         width="1127.6207"
         y="1285.6647"
         x="461.99734" />
    </g>
    <g
       transform="matrix(1.4455056,0,0,1.4455056,900.5401,-444.77561)"
       id="g2161">
      <path
         transform="matrix(3.7795276,0,0,3.7795276,-325.20043,356.53121)"
         style="fill:#0d47a1;fill-opacity:1;stroke-width:0.26458332"
         inkscape:connector-curvature="0"
         d="m 156.93915,76.592584 c 22.84704,2.62334 39.24036,23.2709 36.61834,46.116866 -2.62335,22.84704 -23.2709,39.24036 -46.11688,36.61834 -22.84703,-2.62335 -39.24035,-23.2709 -36.61833,-46.11688 2.62334,-22.847026 23.2709,-39.240346 46.11687,-36.618326 z"
         id="path4-3"
         sodipodi:nodetypes="ccccc" />
      <path
         style="fill:#4caf50;fill-opacity:1"
         inkscape:connector-curvature="0"
         d="M 269.73,630.56 C 174.844,619.665 89.09,687.754 78.2,782.64 67.305,877.526 135.394,963.28 230.28,974.17 325.166,985.06 410.92,916.976 421.81,822.09 432.705,727.204 364.616,641.45 269.73,630.56 Z m -1.7746,15.455 c 86.351,9.915 148.31,87.953 138.4,174.3 -9.915,86.351 -87.953,148.31 -174.3,138.4 -86.351,-9.915 -148.31,-87.953 -138.4,-174.3 9.915,-86.351 87.953,-148.31 174.3,-138.4 z"
         id="path4" />
      <path
         style="fill:#4caf50;fill-opacity:1;fill-rule:evenodd"
         inkscape:connector-curvature="0"
         d="m 345.92,701 a 2.462,2.462 0 0 0 -1.7766,0.71991 2.462,2.462 0 0 0 -0.45258,2.8523 l -4.4437,4.4437 c -7.4842,2.4304 -44.035,14.754 -61.222,29.083 -18.152,15.133 -42.419,44.599 -61.231,59.113 l -24.549,7.2286 c 5.5805,-9.6894 8.2454,-20.185 8.2454,-20.185 0,0 -12.886,3.1428 -23.239,10.001 -9.119,6.0407 -28.758,25.3 -33.535,30.026 l -1.4946,-1.4946 -3.869,3.869 2.6923,2.6923 c -0.61622,0.99132 -7.0276,11.315 -10.02,17.076 -2.2672,4.3652 -4.3616,11.658 -4.3616,11.658 0,0 7.2924,-2.0944 11.658,-4.3616 5.7611,-2.9923 16.085,-9.4037 17.076,-10.02 l 2.6923,2.6923 3.869,-3.869 -1.503,-1.503 c 0.94052,-0.95587 1.5333,-1.5478 3.688,-3.7743 l 12.498,2.3724 c 16.957,3.2194 5.0444,21.217 8.4559,24.629 3.4114,3.4114 21.411,-8.5009 24.631,8.4559 l 2.3702,12.479 c -2.2274,2.1636 -2.8208,2.7595 -3.7764,3.7027 l -1.4504,-1.4504 -3.8711,3.8711 2.6923,2.6923 c -0.6171,0.99272 -7.0258,11.315 -10.018,17.076 -2.2672,4.3652 -4.3616,11.656 -4.3616,11.656 0,0 7.2903,-2.0944 11.656,-4.3616 5.7608,-2.9921 16.085,-9.4008 17.078,-10.018 l 2.6902,2.6902 3.869,-3.869 -1.5451,-1.5451 c 4.7182,-4.7879 23.94,-24.464 29.961,-33.602 6.8353,-10.376 10.068,-23.17 10.068,-23.17 0,0 -10.489,2.5697 -20.145,8.1085 l 7.1887,-24.412 c 14.514,-18.812 43.98,-43.078 59.113,-61.231 14.329,-17.187 26.653,-53.738 29.083,-61.222 l 4.4437,-4.4437 a 2.462,2.462 0 0 0 2.8523,-0.45257 2.462,2.462 0 0 0 0,-3.4817 2.462,2.462 0 0 0 -1.7051,-0.71991 z m -55.872,46.521 a 11.951,11.951 0 0 1 8.277,3.5007 11.951,11.951 0 0 1 0,16.901 11.951,11.951 0 0 1 -16.903,0 11.951,11.951 0 0 1 0,-16.901 11.951,11.951 0 0 1 8.6264,-3.5007 z m -146.42,84.409 9.1905,9.1905 c -1.406,0.8014 -6.2265,3.5409 -9.6831,5.3362 -2.8977,1.505 -8.6558,3.8122 -8.6558,3.8122 0,0 2.3093,-5.7582 3.8143,-8.6559 1.7953,-3.4566 4.533,-8.2771 5.3341,-9.6831 z m 64.649,64.652 9.1884,9.1863 c -1.4072,0.80206 -6.2251,3.5412 -9.681,5.3362 -2.8977,1.505 -8.6558,3.8122 -8.6559,3.8122 0,0 2.3072,-5.756 3.8122,-8.6537 1.7947,-3.4554 4.5335,-8.2726 5.3362,-9.681 z"
         id="path6" />
    </g>
    <g
       transform="translate(359.81512,-761.62417)"
       id="g1365">
      <path
         style="fill:#ffffff;fill-opacity:1;stroke-width:1.4455055"
         inkscape:connector-curvature="0"
         d="m 28.055402,1253.5087 c 124.820888,14.3322 214.382978,127.1366 200.058018,251.9516 -14.33222,124.8209 -127.13657,214.383 -251.951661,200.0581 -124.820819,-14.3322 -214.382909,-127.1366 -200.057949,-251.9517 14.33217,-124.8208 127.136556,-214.3829 251.951592,-200.058 z"
         id="path4-3-6"
         sodipodi:nodetypes="ccccc" />
      <g
         id="g253"
         transform="matrix(3.7956705,0,0,4.0931526,-356.71104,1453.1975)">
        <g
           id="g1333">
          <g
             id="root"
             transform="matrix(5.8006839,0,0,5.8006839,-145.9187,-177.47566)">
            <g
               id="g212">
              <path
                 sodipodi:nodetypes="ccccccccccccccccccccccccccccccccccccccc"
                 inkscape:connector-curvature="0"
                 id="root-fg"
                 transform="matrix(0.04561244,0,0,0.04561244,30.395398,26.439448)"
                 d="M 69.869141,20.767578 58.550781,71.216797 H 25.683594 l -8.40625,35.630863 h 33.478515 l -8.259765,37.29687 H 8.40625 l 0.1974965,16.78937 1.5726905,12.96363 7.174149,5.86614 h 17.350586 l -5.579101,25.53711 5.147413,15.84523 7.847703,9.69188 h 18.574219 l 11.31836,-51.07422 c 12.004388,0.002 24.012006,3e-4 36.017574,0 h 0.0898 l -11.160159,51.07422 h 37.150389 l 11.31836,-51.07422 h 36.01563 c 7.96467,-35.61982 -2.73251,13.18249 7.96484,-35.61914 h -36.1875 l 8.10156,-37.29687 h 36.25391 l 7.80664,-35.630863 H 169.27344 131.96484 95.859375 L 107.01758,20.767578 Z M 87.90625,106.84766 h 36.25391 0.01 l -8.25781,37.29687 -36.10739,2.3e-4 c 2.700376,-12.43237 5.400996,-24.86475 8.10153,-37.2971 z"
                 style="font-style:normal;font-variant:normal;font-weight:normal;font-stretch:normal;font-size:10.58333302px;line-height:1.25;font-family:Audiowide;-inkscape-font-specification:Audiowide;letter-spacing:0px;word-spacing:0px;fill:#f44336;fill-opacity:1;stroke:none;stroke-width:7.82772589" />
              <path
                 style="font-style:normal;font-variant:normal;font-weight:normal;font-stretch:normal;font-size:10.58333302px;line-height:1.25;font-family:Audiowide;-inkscape-font-specification:Audiowide;letter-spacing:0px;word-spacing:0px;fill:#b71c1c;fill-opacity:1;stroke:none;stroke-width:7.82772589"
                 d="M 81.470703,9.1660156 69.869141,20.767578 H 107.01758 L 95.859375,71.216797 c 109.521435,0 0,0 109.521485,0 l -7.80664,35.630863 11.60156,-11.601566 7.80664,-35.63086 c -109.52344,0 0,0 -109.52344,0 L 118.61914,9.1660156 Z M 37.285156,59.615234 25.683594,71.216797 H 58.550781 L 61.15625,59.615234 Z m 50.621094,47.232426 -8.101562,37.29687 h 36.107422 0.0781 l 2.49415,-11.60156 H 91.40625 l 5.585938,-25.69531 z m 73.41406,0 -8.10156,37.29687 h 36.1875 l -7.96484,35.61914 c 11.60135,-11.60137 1.8e-4,0.002 11.60156,-11.59961 l 7.96484,-35.62109 h -36.1875 l 5.58594,-25.69531 z M 20.007812,132.54297 8.40625,144.14453 h 34.089844 l 2.572265,-11.60156 z m 52.001954,47.2207 -11.31836,51.07422 11.601563,-11.60156 8.746093,-39.47266 z m 73.416014,0 -11.31836,51.07422 11.60156,-11.60156 8.7461,-39.47266 z"
                 transform="matrix(0.04561244,0,0,0.04561244,30.395398,26.439448)"
                 id="root-bg"
                 inkscape:connector-curvature="0"
                 sodipodi:nodetypes="cccccccccccccccccccccccccccccccccccccccccccccccc" />
            </g>
          </g>
          <g
             id="g229"
             transform="translate(-0.56263671,2.9553293e-4)">
            <g
               transform="matrix(5.8006839,0,0,5.8006839,-145.9187,-177.47566)"
               id="letter-r">
              <g
                 id="letter-r-1">
                <path
                   sodipodi:nodetypes="ccccc"
                   inkscape:connector-curvature="0"
                   style="font-style:normal;font-variant:normal;font-weight:normal;font-stretch:normal;font-size:10.58333302px;line-height:1.25;font-family:Audiowide;-inkscape-font-specification:Audiowide;letter-spacing:0px;word-spacing:0px;fill:#1a237e;fill-opacity:1;stroke:none;stroke-width:0.35704166"
                   d="m 37.289945,33.897852 -0.680577,3.070614 0.529167,-0.529165 0.680577,-3.070614 z"
                   id="letter-r-1-bg" />
                <path
                   sodipodi:nodetypes="ccccc"
                   inkscape:connector-curvature="0"
                   style="font-style:normal;font-variant:normal;font-weight:normal;font-stretch:normal;font-size:10.58333302px;line-height:1.25;font-family:Audiowide;-inkscape-font-specification:Audiowide;letter-spacing:0px;word-spacing:0px;fill:#3f51b5;fill-opacity:1;stroke:none;stroke-width:0.35704166"
                   d="m 35.490572,33.897852 -0.69453,3.070614 h 1.813326 l 0.680577,-3.070614 z"
                   id="letter-r-1-fg" />
              </g>
              <g
                 id="letter-r-2">
                <path
                   inkscape:connector-curvature="0"
                   id="letter-r-2-bg"
                   d="m 40.079442,33.368685 -0.529167,0.529167 h 2.797245 l 2.874243,3.070614 0.529167,-0.529167 -2.874243,-3.070614 z"
                   style="font-style:normal;font-variant:normal;font-weight:normal;font-stretch:normal;font-size:10.58333302px;line-height:1.25;font-family:Audiowide;-inkscape-font-specification:Audiowide;letter-spacing:0px;word-spacing:0px;fill:#1a237e;fill-opacity:1;stroke:none;stroke-width:0.35704166" />
                <path
                   sodipodi:nodetypes="ccccc"
                   inkscape:connector-curvature="0"
                   style="font-style:normal;font-variant:normal;font-weight:normal;font-stretch:normal;font-size:10.58333302px;line-height:1.25;font-family:Audiowide;-inkscape-font-specification:Audiowide;letter-spacing:0px;word-spacing:0px;fill:#3f51b5;fill-opacity:1;stroke:none;stroke-width:0.35704166"
                   d="m 39.550273,33.897852 2.868041,3.070614 h 2.803448 L 42.34752,33.897852 Z"
                   id="letter-r-2-fg" />
              </g>
            </g>
            <g
               transform="matrix(5.8006839,0,0,5.8006839,-145.9187,-177.47566)"
               id="letter-d">
              <path
                 inkscape:connector-curvature="0"
                 style="font-style:normal;font-variant:normal;font-weight:normal;font-stretch:normal;font-size:10.58333302px;line-height:1.25;font-family:Audiowide;-inkscape-font-specification:Audiowide;letter-spacing:0px;word-spacing:0px;fill:#1b5e20;fill-opacity:1;stroke:none;stroke-width:0.35704166"
                 d="m 38.454855,26.439449 c -0.130172,0 -0.255873,0.02327 -0.377755,0.06976 -0.12188,0.04649 -0.763345,0.640823 -0.86558,0.724503 0.102235,-0.08368 0.214533,-0.14885 0.336413,-0.195337 0.121883,-0.04649 0.247583,-0.06976 0.377755,-0.06976 h 6.882784 c 0.404461,0 0.729692,0.07447 0.975651,0.223242 0.246988,0.144119 0.431947,0.327719 0.554488,0.550871 0.128225,0.218501 0.200894,0.455373 0.218591,0.711068 0.02235,0.255693 0.0092,0.495151 -0.04031,0.718302 L 46.26006,30.32965 c -0.09174,0.413759 -0.224519,0.783547 -0.398942,1.108976 -0.140729,0.262567 -0.301137,0.500024 -0.479557,0.714169 0.138898,-0.115701 0.272063,-0.24141 0.398425,-0.378789 0.23232,-0.251044 0.435878,-0.539117 0.610299,-0.864546 0.174423,-0.325429 0.307202,-0.695218 0.398942,-1.108977 l 0.256832,-1.157552 c 0.04949,-0.223151 0.06266,-0.462608 0.04031,-0.718302 -0.0177,-0.255695 -0.09037,-0.492567 -0.218591,-0.711068 -0.122541,-0.223152 -0.3075,-0.406752 -0.554488,-0.550871 -0.245959,-0.14877 -0.57119,-0.223242 -0.975651,-0.223242 z m -0.03152,2.342493 -1.074353,4.915979 0.529167,-0.529167 0.958598,-4.386812 z m 5.759855,2.198832 c -0.135027,0.09245 -0.27938,0.174147 -0.441316,0.235645 -0.20245,0.07439 -0.419717,0.120926 -0.65164,0.139526 h -4.100525 l -0.529167,0.529167 h 4.100525 c 0.231923,-0.0186 0.44919,-0.06514 0.65164,-0.139527 0.208129,-0.07904 0.393911,-0.183504 0.557589,-0.313676 0.16304,-0.126077 0.30028,-0.277076 0.412894,-0.451135 z"
                 id="letter-d-bg" />
              <path
                 inkscape:connector-curvature="0"
                 id="letter-d-fg"
                 style="font-style:normal;font-variant:normal;font-weight:normal;font-stretch:normal;font-size:10.58333302px;line-height:1.25;font-family:Audiowide;-inkscape-font-specification:Audiowide;letter-spacing:0px;word-spacing:0px;fill:#43a047;fill-opacity:1;stroke:none;stroke-width:0.35704166"
                 d="m 46.260056,30.330037 c -0.09174,0.413759 -0.224803,0.783353 -0.399226,1.108782 -0.174421,0.325429 -0.377791,0.613666 -0.610111,0.86471 -0.226637,0.246396 -0.473437,0.457925 -0.740402,0.634585 -0.266965,0.176662 -0.538855,0.323106 -0.815666,0.43933 -0.271131,0.111572 -0.540213,0.192932 -0.807243,0.24407 -0.262381,0.05113 -0.505147,0.0767 -0.728299,0.0767 h -2.79636 -1.30404 l 0.401955,-1.813102 h 4.1004 c 0.231923,-0.0186 0.44911,-0.06508 0.65156,-0.139469 0.208129,-0.07904 0.394034,-0.183635 0.557712,-0.313807 0.168328,-0.130167 0.309781,-0.285911 0.424359,-0.467222 0.115607,-0.185959 0.199694,-0.397488 0.252256,-0.634585 l 0.253541,-1.14365 c 0.02267,-0.102274 0.02573,-0.178985 0.0092,-0.230124 -0.0108,-0.05579 -0.03464,-0.0953 -0.07135,-0.118549 -0.03101,-0.02789 -0.06924,-0.04417 -0.114703,-0.04881 -0.04081,-0.0047 -0.07981,-0.007 -0.116997,-0.007 h -5.983247 l -1.074646,4.916335 h -1.813102 l 1.274079,-5.815912 c 0.02782,-0.125526 0.07735,-0.244071 0.148581,-0.355648 0.07122,-0.111572 0.155629,-0.209203 0.253214,-0.292885 0.102235,-0.08368 0.214294,-0.14877 0.336174,-0.195257 0.121882,-0.04649 0.247908,-0.06974 0.37808,-0.06974 h 6.882815 c 0.404461,0 0.729671,0.07438 0.97563,0.22315 0.246988,0.144119 0.431752,0.327753 0.554293,0.550905 0.128225,0.218501 0.20118,0.455599 0.218878,0.711294 0.02235,0.255694 0.0088,0.495116 -0.04069,0.718267 z"
                 sodipodi:nodetypes="cccscccccccccccccccscccccccssccccc" />
            </g>
            <g
               transform="matrix(5.8006839,0,0,5.8006839,-145.9187,-177.47566)"
               id="underscore">
              <g
                 aria-label="#_"
                 style="font-style:normal;font-weight:normal;font-size:11.86558533px;line-height:1.25;font-family:sans-serif;letter-spacing:0px;word-spacing:0px;fill:#9e9e9e;fill-opacity:1;stroke:none;stroke-width:0.29663962"
                 id="underscore-fg-transform"
                 transform="matrix(1,0,-0.22169466,1,10.850587,-10.033015)">
                <path
                   d="m 50.763318,47.00148 h -5.443 v -1.349942 h 5.794265 z"
                   style="font-style:normal;font-variant:normal;font-weight:normal;font-stretch:normal;font-family:Audiowide;-inkscape-font-specification:Audiowide;fill:#9e9e9e;fill-opacity:1;stroke-width:0.29663962"
                   id="underscore-fg"
                   inkscape:connector-curvature="0"
                   sodipodi:nodetypes="ccccc" />
              </g>
              <g
                 aria-label="#_"
                 style="font-style:normal;font-weight:normal;font-size:11.86558533px;line-height:1.25;font-family:sans-serif;letter-spacing:0px;word-spacing:0px;fill:#212121;fill-opacity:1;stroke:none;stroke-width:0.29663962"
                 id="underscore-bg-transform"
                 transform="matrix(1,0,-0.22169466,1,11.379495,-10.561928)">
                <path
                   inkscape:connector-curvature="0"
                   id="underscore-bg"
                   transform="matrix(0.26458333,0,0.05865671,0.26458333,38.769454,29.35564)"
                   d="m 11.105469,61.589844 -2.0000002,2 H 30.815723 l 1.620681,-2 z"
                   style="font-style:normal;font-variant:normal;font-weight:normal;font-stretch:normal;font-family:Audiowide;-inkscape-font-specification:Audiowide;fill:#212121;fill-opacity:1;stroke-width:1.12115765"
                   sodipodi:nodetypes="ccccc" />
              </g>
            </g>
          </g>
        </g>
        <g
           transform="matrix(5.800684,0,0,5.800684,-126.49434,-177.47566)"
           id="root-3" />
      </g>
      <path
         style="fill:#4caf50;fill-opacity:1;stroke-width:1.44550562"
         inkscape:connector-curvature="0"
         d="m 30.621207,1231.1691 c -137.158247,-15.7488 -261.116137,82.6743 -276.857687,219.8325 -15.74878,137.1583 82.67425,261.1162 219.832491,276.8577 137.158239,15.7416 261.116129,-82.6742 276.857689,-219.8325 15.74878,-137.1581 -82.67425,-261.1161 -219.832493,-276.8577 z m -2.565194,22.3403 c 124.820857,14.3322 214.382937,127.1367 200.057977,251.9516 -14.33219,124.8209 -127.13656,214.383 -251.951628,200.058 -124.820852,-14.3322 -214.382942,-127.1365 -200.057972,-251.9516 14.33218,-124.8209 127.136551,-214.3829 251.951623,-200.058 z"
         id="path4-7-2" />
    </g>
  </g>
  <rect
     style="opacity:1;fill:none;fill-opacity:1;fill-rule:evenodd;stroke:none;stroke-width:3.77952766;stroke-miterlimit:4;stroke-dasharray:none;stroke-opacity:1"
     id="rect1036"
     width="1400"
     height="1400"
     x="0"
     y="0" />
</svg>
