<?xml version="1.0" encoding="UTF-8" standalone="no"?>
<!-- Created with Inkscape (http://www.inkscape.org/) -->

<svg
   xmlns:dc="http://purl.org/dc/elements/1.1/"
   xmlns:cc="http://creativecommons.org/ns#"
   xmlns:rdf="http://www.w3.org/1999/02/22-rdf-syntax-ns#"
   xmlns:svg="http://www.w3.org/2000/svg"
   xmlns="http://www.w3.org/2000/svg"
   xmlns:sodipodi="http://sodipodi.sourceforge.net/DTD/sodipodi-0.dtd"
   xmlns:inkscape="http://www.inkscape.org/namespaces/inkscape"
   version="1.1"
   id="svg101"
   width="378.73047"
   height="377.01373"
   viewBox="0 0 378.73047 377.01373"
   sodipodi:docname="graphism.svg"
   inkscape:version="0.92.5 (2060ec1f9f, 2020-04-08)">
  <metadata
     id="metadata107">
    <rdf:RDF>
      <cc:Work
         rdf:about="">
        <dc:format>image/svg+xml</dc:format>
        <dc:type
           rdf:resource="http://purl.org/dc/dcmitype/StillImage" />
        <dc:title></dc:title>
      </cc:Work>
    </rdf:RDF>
  </metadata>
  <defs
     id="defs105" />
  <sodipodi:namedview
     pagecolor="#ffffff"
     bordercolor="#666666"
     borderopacity="1"
     objecttolerance="10"
     gridtolerance="10"
     guidetolerance="10"
     inkscape:pageopacity="0"
     inkscape:pageshadow="2"
     inkscape:window-width="2042"
     inkscape:window-height="1324"
     id="namedview103"
     showgrid="false"
     inkscape:zoom="1.4513359"
     inkscape:cx="356.5765"
     inkscape:cy="208.40199"
     inkscape:window-x="0"
     inkscape:window-y="18"
     inkscape:window-maximized="1"
     inkscape:current-layer="g111" />
  <g
     id="g111"
     transform="translate(-495.91591,-184.74368)">
    <g
       id="g215">
      <path
         inkscape:connector-curvature="0"
         id="path119"
         d="m 728.28474,381.0615 c 24.7797,-4.02416 45.70355,-7.71812 46.49747,-8.20879 1.53128,-0.94637 39.67735,-78.36615 42.61452,-86.48876 l 1.72959,-4.78308 -21.26548,-21.29668 c -11.69602,-11.71317 -21.91436,-21.29668 -22.70746,-21.29668 -2.0174,0 -87.5724,41.23068 -89.48017,43.12229 -1.4468,1.43456 -16.44781,88.78395 -16.73277,97.43324 -0.17252,5.23654 5.82514,10.54631 10.781,9.54451 1.93013,-0.39016 23.78362,-4.00188 48.5633,-8.02605 z"
         style="fill:#ffd42a;stroke-width:1.33333337" />
      <path
         inkscape:connector-curvature="0"
         id="path125"
         d="m 871.23077,537.65418 v -22 H 849.89744 828.5641 l -0.69041,6.66666 c -1.03748,10.01783 -1.24597,10.15863 -13.73609,9.27691 -81.97231,-5.78673 -137.52898,-25.64859 -168.93699,-60.39604 -8.70724,-9.63304 -18.39337,-26.94545 -21.94363,-39.22072 -3.21618,-11.12024 -2.71834,-12.20099 5.98535,-12.99348 l 7.32177,-0.66667 v -22 -22 l -8.66666,-0.66666 -8.66667,-0.66667 -0.90179,-5.33333 c -0.49597,-2.93334 -1.90402,-12.23334 -3.129,-20.66667 -4.08718,-28.13837 -13.76202,-54.53592 -26.64506,-72.70031 -8.20518,-11.56885 -22.53663,-24.52802 -33.48256,-30.27648 -5.2121,-2.73724 -10.12991,-5.76405 -10.92847,-6.72625 -0.79855,-0.9622 -1.63068,-6.22264 -1.84919,-11.68987 l -0.39726,-9.94042 H 520.5641 499.23077 l -0.36557,22.33333 -0.36558,22.33333 h 22.03224 22.03224 v -3.83674 c 0,-6.44118 2.59767,-7.19382 10.06015,-2.9148 19.51121,11.18781 36.48105,34.19384 45.79543,62.08488 5.51164,16.5041 11.72482,53.03084 9.60418,56.46209 -0.46821,0.7576 -4.1382,1.56355 -8.15553,1.79101 l -7.30423,0.41356 v 22 22 l 8,0.40655 c 4.4,0.2236 8.4829,0.88649 9.0731,1.47309 0.5902,0.5866 1.89981,4.61039 2.91025,8.94175 2.74673,11.7742 10.32667,28.73925 17.05077,38.16225 10.82635,15.17176 28.95883,30.73044 48.96588,42.01546 28.85588,16.27621 79.00312,28.33089 132,31.73092 7.7,0.49398 14.75,1.50529 15.66667,2.24733 0.94749,0.767 1.66667,4.34719 1.66667,8.29703 0,3.82132 0.41465,7.3625 0.92145,7.8693 0.5068,0.5068 10.2568,0.7568 21.66667,0.55555 l 20.74521,-0.36589 z"
         style="fill:#f8dd55;stroke-width:1.33333337" />
      <path
         inkscape:connector-curvature="0"
         id="path175"
         d="m 871.23077,537.65418 v -22 H 849.89744 828.5641 l -0.69041,6.66666 c -1.03748,10.01783 -1.24597,10.15863 -13.73609,9.27691 -81.97231,-5.78673 -137.52898,-25.64859 -168.93699,-60.39604 -8.70724,-9.63304 -18.39337,-26.94545 -21.94363,-39.22072 -3.21618,-11.12024 -2.71834,-12.20099 5.98535,-12.99348 l 7.32177,-0.66667 v -22 -22 l -8.66666,-0.66666 -8.66667,-0.66667 -0.90179,-5.33333 c -0.49597,-2.93334 -1.90402,-12.23334 -3.129,-20.66667 -4.08718,-28.13837 -13.76202,-54.53592 -26.64506,-72.70031 -8.20518,-11.56885 -22.53663,-24.52802 -33.48256,-30.27648 -5.2121,-2.73724 -10.12991,-5.76405 -10.92847,-6.72625 -0.79855,-0.9622 -1.63068,-6.22264 -1.84919,-11.68987 l -0.39726,-9.94042 H 520.5641 499.23077 l -0.36557,22.33333 -0.36558,22.33333 h 22.03224 22.03224 v -3.83674 c 0,-6.44118 2.59767,-7.19382 10.06015,-2.9148 19.51121,11.18781 36.48105,34.19384 45.79543,62.08488 5.51164,16.5041 11.72482,53.03084 9.60418,56.46209 -0.46821,0.7576 -4.1382,1.56355 -8.15553,1.79101 l -7.30423,0.41356 v 22 22 l 8,0.40655 c 4.4,0.2236 8.4829,0.88649 9.0731,1.47309 0.5902,0.5866 1.89981,4.61039 2.91025,8.94175 2.74673,11.7742 10.32667,28.73925 17.05077,38.16225 10.82635,15.17176 28.95883,30.73044 48.96588,42.01546 28.85588,16.27621 79.00312,28.33089 132,31.73092 7.7,0.49398 14.75,1.50529 15.66667,2.24733 0.94749,0.767 1.66667,4.34719 1.66667,8.29703 0,3.82132 0.41465,7.3625 0.92145,7.8693 0.5068,0.5068 10.2568,0.7568 21.66667,0.55555 l 20.74521,-0.36589 z"
         style="fill:#e39da6;stroke-width:1.33333337" />
      <path
         inkscape:connector-curvature="0"
         id="path123"
         d="m 735.21672,322.98739 62.6179,-62.6668 -10.60397,-10.66653 c -5.8322,-5.8666 -11.25992,-10.66655 -12.06161,-10.66655 -2.02796,0 -87.57872,41.22143 -89.49583,43.12229 -1.40339,1.39152 -16.44043,88.63972 -16.72099,97.0189 -0.12093,3.61137 1.08836,6.52548 2.70792,6.52548 0.51627,0 29.11672,-28.20006 63.55658,-62.66679 z"
         style="fill:#e39da6;stroke-width:1.33333337" />
      <path
         inkscape:connector-curvature="0"
         id="path181"
         d="m 872.9641,560.05418 c 1.68662,-1.68662 2.37355,-40.16608 0.79068,-44.29095 -0.6948,-1.81063 -4.07054,-2.10905 -23.85734,-2.10905 -25.86054,0 -24.66667,-0.49922 -24.66667,10.31441 v 6.09631 l -17,-0.89063 c -51.63368,-2.70505 -99.56384,-15.37635 -132.83181,-35.11672 -14.40282,-8.54625 -33.21626,-27.13045 -40.87887,-40.38076 -5.96572,-10.31603 -12.56107,-28.52263 -11.4146,-31.51027 0.38564,-1.00496 3.54697,-1.86746 7.72244,-2.10692 l 7.06951,-0.40542 v -23.33334 -23.33333 l -8.63086,-0.66667 -8.63086,-0.66666 -0.90502,-5.33334 c -0.49774,-2.93333 -1.91122,-11.89988 -3.14104,-19.92565 -8.3232,-54.31707 -28.43789,-86.55176 -67.19252,-107.679 -4.08208,-2.22537 -4.16637,-2.46949 -4.16637,-12.06667 0,-5.84082 -0.64595,-10.44129 -1.6,-11.39534 -1.11664,-1.11664 -8.32385,-1.6 -23.85735,-1.6 -19.0658,0 -22.3734,0.30242 -23.06666,2.10905 -1.05446,2.74787 -1.05446,41.03403 0,43.78189 0.6948,1.81063 4.07054,2.10906 23.85734,2.10906 24.59654,0 24.66667,-0.0193 24.66667,-6.77572 0,-3.42164 1.65991,-3.2266 8.31971,0.97754 19.22053,12.13339 36.78246,37.64952 44.82792,65.13151 3.47326,11.86411 8.1857,38.05808 8.1857,45.49999 v 5.70026 l -7.66666,0.39988 -7.66667,0.39987 v 23.33333 23.33334 l 8,0.40654 c 4.4,0.2236 8.45688,0.86047 9.01528,1.41528 0.55841,0.5548 2.24089,5.4315 3.73887,10.8371 12.65709,45.67468 48.72241,77.54502 107.91252,95.36058 24.88385,7.48975 57.86825,13.03372 89.33333,15.01499 l 15.33333,0.96551 0.41318,7.29292 c 0.22724,4.01109 1.0507,8.06109 1.82992,9 1.94721,2.34624 43.8206,2.44338 46.1569,0.10706 z"
         style="fill:#d40000;stroke-width:1.33333337" />
      <path
         inkscape:connector-curvature="0"
         id="path121"
         d="m 735.21672,322.98739 62.6179,-62.6668 -10.60397,-10.66653 c -5.8322,-5.8666 -11.25992,-10.66655 -12.06161,-10.66655 -2.02796,0 -87.57872,41.22143 -89.49583,43.12229 -1.40339,1.39152 -16.44043,88.63972 -16.72099,97.0189 -0.12093,3.61137 1.08836,6.52548 2.70792,6.52548 0.51627,0 29.11672,-28.20006 63.55658,-62.66679 z"
         style="fill:#f7c91b;stroke-width:1.33333337" />
      <path
         inkscape:connector-curvature="0"
         id="path195"
         d="m 602.89188,557.68759 c -23.3652,-10.60571 -23.49436,-43.58673 -0.2118,-54.08571 l 5.21736,-2.3527 v -35.05215 c 0,-19.27868 0.48618,-35.35261 1.0804,-35.71987 0.59422,-0.36725 3.60094,5.74735 6.68162,13.58798 l 5.60122,14.2557 -0.0149,21.06202 -0.0149,21.06201 4.19697,2.27132 c 6.92599,3.74821 13.12938,9.6972 16.01975,15.36277 4.13615,8.10754 3.08883,21.48794 -2.27983,29.1266 -8.10144,11.52694 -23.91014,16.09494 -36.27578,10.48203 z"
         style="fill:#5b5659;stroke-width:1.33333337" />
      <path
         inkscape:connector-curvature="0"
         id="path193"
         d="m 619.63874,356.32084 c -0.50896,-1.1 -1.90706,-7.1 -3.10692,-13.33333 -1.19985,-6.23333 -3.63344,-17.00623 -5.40796,-23.93977 -2.9595,-11.56351 -3.22642,-15.17378 -3.22642,-43.63956 v -31.03314 l -5,-2.57693 c -20.02916,-10.32273 -23.67147,-34.96421 -7.34399,-49.68464 18.60241,-16.77143 48.20589,-3.05404 48.31471,22.38763 0.0496,11.6119 -5.02759,20.13594 -15.52131,26.05824 l -7.08763,4.00001 -0.34756,56.88075 c -0.19116,31.28441 -0.76397,55.98074 -1.27292,54.88074 z"
         style="fill:#5b5659;stroke-width:1.33333337" />
      <path
         inkscape:connector-curvature="0"
         id="path115"
         d="m 819.02358,279.90952 c -2.81937,-2.42622 -14.09614,-13.52213 -25.05948,-24.65757 -26.30721,-26.72019 -26.30634,-23.31427 -0.012,-49.65203 10.95646,-10.97474 20.32172,-19.80221 20.8117,-19.61658 2.88274,1.09212 57.13414,55.10236 57.13414,56.88018 0,2.36472 -34.87733,37.59562 -39.57901,39.98023 -4.76064,2.41452 -7.87915,1.72625 -13.29484,-2.93423 z"
         style="fill:#5b5659;stroke-width:1.33333337" />
      <path
         inkscape:connector-curvature="0"
         id="path201"
         d="m 607.20284,557.15914 c -7.89406,-2.51776 -12.35578,-5.88058 -15.95783,-12.02744 -8.86755,-15.13243 -2.93333,-33.45475 12.98576,-40.09451 2.75,-1.147 5.1226,-2.22741 5.27245,-2.40091 0.14984,-0.17349 0.59984,-14.7116 1,-32.30692 l 0.72755,-31.99146 3.66667,9.35782 c 3.4521,8.81023 3.66786,10.60424 3.68708,30.65814 0.0107,11.71517 0.46122,21.96972 1,22.78788 0.53877,0.81814 3.4364,2.7328 6.43916,4.25477 20.49704,10.38908 22.05702,37.70307 2.78662,48.79115 -7.10578,4.08864 -14.79106,5.14552 -21.60746,2.97148 z"
         style="fill:#3b3b3b;stroke-width:1.33333337" />
      <path
         inkscape:connector-curvature="0"
         id="path199"
         d="m 614.20153,323.35926 c -3.53883,-13.76099 -3.69552,-15.73167 -3.68708,-46.37175 0.005,-17.6 -0.43199,-32.66131 -0.97076,-33.46956 -0.53877,-0.80827 -3.21549,-2.51993 -5.94825,-3.80372 -6.7717,-3.18117 -13.90884,-11.41561 -15.7181,-18.13465 -4.68204,-17.38779 8.63367,-34.59207 26.77344,-34.59207 17.03355,0 30.88396,16.7728 27.30524,33.06657 -1.62513,7.39919 -8.03242,15.69348 -14.56664,18.85664 -3.3791,1.6358 -6.59716,3.67227 -7.15122,4.52548 -0.55407,0.85323 -1.30739,22.41859 -1.67406,47.92306 l -0.66666,46.37174 z"
         style="fill:#3b3b3b;stroke-width:1.33333337" />
      <path
         inkscape:connector-curvature="0"
         id="path113"
         d="m 810.89885,270.17672 -11.349,-11.47746 21.15816,-21.1892 c 11.637,-11.65407 21.69603,-21.18922 22.3534,-21.18922 2.18355,0 26.16936,24.45268 26.16936,26.67872 0,1.20312 -8.33641,10.39259 -18.52536,20.42104 -23.79281,23.41806 -23.39745,23.35096 -39.80656,6.75612 z"
         style="fill:#3b3b3b;stroke-width:1.33333337" />
    </g>
  </g>
</svg>
