<?xml version="1.0" encoding="UTF-8" standalone="no"?>
<!-- Created with Inkscape (http://www.inkscape.org/) -->

<svg
   xmlns:ns1="https://launchpad.net/jessyink"
   xmlns:dc="http://purl.org/dc/elements/1.1/"
   xmlns:cc="http://creativecommons.org/ns#"
   xmlns:rdf="http://www.w3.org/1999/02/22-rdf-syntax-ns#"
   xmlns:svg="http://www.w3.org/2000/svg"
   xmlns="http://www.w3.org/2000/svg"
   xmlns:xlink="http://www.w3.org/1999/xlink"
   xmlns:sodipodi="http://sodipodi.sourceforge.net/DTD/sodipodi-0.dtd"
   xmlns:inkscape="http://www.inkscape.org/namespaces/inkscape"
   mlns="http://www.w3.org/2000/svg"
   width="1000mm"
   height="1000mm"
   viewBox="0 0 1000 1000"
   version="1.1"
   id="svg8"
   inkscape:version="0.92.5 (2060ec1f9f, 2020-04-08)"
   sodipodi:docname="logo_rdeville.svg">
  <defs
     id="defs2" />
  <sodipodi:namedview
     id="base"
     pagecolor="#ffffff"
     bordercolor="#666666"
     borderopacity="1.0"
     inkscape:pageopacity="0.0"
     inkscape:pageshadow="2"
     inkscape:zoom="0.18137499"
     inkscape:cx="2339.8065"
     inkscape:cy="1770.0784"
     inkscape:document-units="mm"
     inkscape:current-layer="layer1"
     showgrid="false"
     showguides="true"
     inkscape:guide-bbox="true"
     inkscape:window-width="2042"
     inkscape:window-height="1324"
     inkscape:window-x="0"
     inkscape:window-y="18"
     inkscape:window-maximized="1" />
  <metadata
     id="metadata5">
    <rdf:RDF>
      <cc:Work
         rdf:about="">
        <dc:format>image/svg+xml</dc:format>
        <dc:type
           rdf:resource="http://purl.org/dc/dcmitype/StillImage" />
        <dc:title></dc:title>
      </cc:Work>
    </rdf:RDF>
  </metadata>
  <g
     inkscape:label="Layer 1"
     inkscape:groupmode="layer"
     id="layer1"
     transform="translate(-30.395387,963.03085)"
     ns1:transitionIn="name:pop;length:10000">
    <g
       id="g253"
       transform="matrix(7.5913411,0,0,8.1863053,-200.34642,-515.67144)">
      <g
         transform="matrix(5.8006839,0,0,5.8006839,-145.9187,-177.47566)"
         id="root">
        <g
           id="g212">
          <path
             style="font-style:normal;font-variant:normal;font-weight:normal;font-stretch:normal;font-size:10.58333302px;line-height:1.25;font-family:Audiowide;-inkscape-font-specification:Audiowide;letter-spacing:0px;word-spacing:0px;fill:#f44336;fill-opacity:1;stroke:none;stroke-width:7.82772589"
             d="M 69.869141,20.767578 58.550781,71.216797 H 25.683594 l -8.40625,35.630863 h 33.478515 l -8.259765,37.29687 H 8.40625 L 0,179.76367 h 34.701172 l -11.158203,51.07422 h 37.148437 l 11.31836,-51.07422 c 12.004388,0.002 24.012006,3e-4 36.017574,0 h 0.0898 l -11.160159,51.07422 h 37.150389 l 11.31836,-51.07422 h 36.01563 c 7.96467,-35.61982 -2.73251,13.18249 7.96484,-35.61914 h -36.1875 l 8.10156,-37.29687 h 36.25391 l 7.80664,-35.630863 h -36.10737 c -37.3086,0 0,0 -37.3086,0 H 95.859375 L 107.01758,20.767578 Z M 87.90625,106.84766 h 36.25391 0.01 l -8.25781,37.29687 -36.10739,2.3e-4 c 2.700376,-12.43237 5.400996,-24.86475 8.10153,-37.2971 z"
             transform="matrix(0.04561244,0,0,0.04561244,30.395398,26.439448)"
             id="root-fg"
             inkscape:connector-curvature="0"
             sodipodi:nodetypes="ccccccccccccccccccccccccccccccccccc" />
          <path
             sodipodi:nodetypes="cccccccccccccccccccccccccccccccccccccccccccccccc"
             inkscape:connector-curvature="0"
             id="root-bg"
             transform="matrix(0.04561244,0,0,0.04561244,30.395398,26.439448)"
             d="M 81.470703,9.1660156 69.869141,20.767578 H 107.01758 L 95.859375,71.216797 c 109.521435,0 0,0 109.521485,0 l -7.80664,35.630863 11.60156,-11.601566 7.80664,-35.63086 c -109.52344,0 0,0 -109.52344,0 L 118.61914,9.1660156 Z M 37.285156,59.615234 25.683594,71.216797 H 58.550781 L 61.15625,59.615234 Z m 50.621094,47.232426 -8.101562,37.29687 h 36.107422 0.0781 l 2.49415,-11.60156 H 91.40625 l 5.585938,-25.69531 z m 73.41406,0 -8.10156,37.29687 h 36.1875 l -7.96484,35.61914 c 11.60135,-11.60137 1.8e-4,0.002 11.60156,-11.59961 l 7.96484,-35.62109 h -36.1875 l 5.58594,-25.69531 z M 20.007812,132.54297 8.40625,144.14453 h 34.089844 l 2.572265,-11.60156 z m 52.001954,47.2207 -11.31836,51.07422 11.601563,-11.60156 8.746093,-39.47266 z m 73.416014,0 -11.31836,51.07422 11.60156,-11.60156 8.7461,-39.47266 z"
             style="font-style:normal;font-variant:normal;font-weight:normal;font-stretch:normal;font-size:10.58333302px;line-height:1.25;font-family:Audiowide;-inkscape-font-specification:Audiowide;letter-spacing:0px;word-spacing:0px;fill:#b71c1c;fill-opacity:1;stroke:none;stroke-width:7.82772589" />
        </g>
      </g>
      <g
         transform="translate(-0.56263671,2.9553293e-4)"
         id="g229">
        <g
           id="letter-r"
           transform="matrix(5.8006839,0,0,5.8006839,-145.9187,-177.47566)">
          <g
             id="letter-r-1">
            <path
               id="letter-r-1-bg"
               d="m 37.289945,33.897852 -0.680577,3.070614 0.529167,-0.529165 0.680577,-3.070614 z"
               style="font-style:normal;font-variant:normal;font-weight:normal;font-stretch:normal;font-size:10.58333302px;line-height:1.25;font-family:Audiowide;-inkscape-font-specification:Audiowide;letter-spacing:0px;word-spacing:0px;fill:#1a237e;fill-opacity:1;stroke:none;stroke-width:0.35704166"
               inkscape:connector-curvature="0"
               sodipodi:nodetypes="ccccc" />
            <path
               id="letter-r-1-fg"
               d="m 35.490572,33.897852 -0.69453,3.070614 h 1.813326 l 0.680577,-3.070614 z"
               style="font-style:normal;font-variant:normal;font-weight:normal;font-stretch:normal;font-size:10.58333302px;line-height:1.25;font-family:Audiowide;-inkscape-font-specification:Audiowide;letter-spacing:0px;word-spacing:0px;fill:#3f51b5;fill-opacity:1;stroke:none;stroke-width:0.35704166"
               inkscape:connector-curvature="0"
               sodipodi:nodetypes="ccccc" />
          </g>
          <g
             id="letter-r-2">
            <path
               style="font-style:normal;font-variant:normal;font-weight:normal;font-stretch:normal;font-size:10.58333302px;line-height:1.25;font-family:Audiowide;-inkscape-font-specification:Audiowide;letter-spacing:0px;word-spacing:0px;fill:#1a237e;fill-opacity:1;stroke:none;stroke-width:0.35704166"
               d="m 40.079442,33.368685 -0.529167,0.529167 h 2.797245 l 2.874243,3.070614 0.529167,-0.529167 -2.874243,-3.070614 z"
               id="letter-r-2-bg"
               inkscape:connector-curvature="0" />
            <path
               id="letter-r-2-fg"
               d="m 39.550273,33.897852 2.868041,3.070614 h 2.803448 L 42.34752,33.897852 Z"
               style="font-style:normal;font-variant:normal;font-weight:normal;font-stretch:normal;font-size:10.58333302px;line-height:1.25;font-family:Audiowide;-inkscape-font-specification:Audiowide;letter-spacing:0px;word-spacing:0px;fill:#3f51b5;fill-opacity:1;stroke:none;stroke-width:0.35704166"
               inkscape:connector-curvature="0"
               sodipodi:nodetypes="ccccc" />
          </g>
        </g>
        <g
           id="letter-d"
           transform="matrix(5.8006839,0,0,5.8006839,-145.9187,-177.47566)">
          <path
             id="letter-d-bg"
             d="m 38.454855,26.439449 c -0.130172,0 -0.255873,0.02327 -0.377755,0.06976 -0.12188,0.04649 -0.763345,0.640823 -0.86558,0.724503 0.102235,-0.08368 0.214533,-0.14885 0.336413,-0.195337 0.121883,-0.04649 0.247583,-0.06976 0.377755,-0.06976 h 6.882784 c 0.404461,0 0.729692,0.07447 0.975651,0.223242 0.246988,0.144119 0.431947,0.327719 0.554488,0.550871 0.128225,0.218501 0.200894,0.455373 0.218591,0.711068 0.02235,0.255693 0.0092,0.495151 -0.04031,0.718302 L 46.26006,30.32965 c -0.09174,0.413759 -0.224519,0.783547 -0.398942,1.108976 -0.140729,0.262567 -0.301137,0.500024 -0.479557,0.714169 0.138898,-0.115701 0.272063,-0.24141 0.398425,-0.378789 0.23232,-0.251044 0.435878,-0.539117 0.610299,-0.864546 0.174423,-0.325429 0.307202,-0.695218 0.398942,-1.108977 l 0.256832,-1.157552 c 0.04949,-0.223151 0.06266,-0.462608 0.04031,-0.718302 -0.0177,-0.255695 -0.09037,-0.492567 -0.218591,-0.711068 -0.122541,-0.223152 -0.3075,-0.406752 -0.554488,-0.550871 -0.245959,-0.14877 -0.57119,-0.223242 -0.975651,-0.223242 z m -0.03152,2.342493 -1.074353,4.915979 0.529167,-0.529167 0.958598,-4.386812 z m 5.759855,2.198832 c -0.135027,0.09245 -0.27938,0.174147 -0.441316,0.235645 -0.20245,0.07439 -0.419717,0.120926 -0.65164,0.139526 h -4.100525 l -0.529167,0.529167 h 4.100525 c 0.231923,-0.0186 0.44919,-0.06514 0.65164,-0.139527 0.208129,-0.07904 0.393911,-0.183504 0.557589,-0.313676 0.16304,-0.126077 0.30028,-0.277076 0.412894,-0.451135 z"
             style="font-style:normal;font-variant:normal;font-weight:normal;font-stretch:normal;font-size:10.58333302px;line-height:1.25;font-family:Audiowide;-inkscape-font-specification:Audiowide;letter-spacing:0px;word-spacing:0px;fill:#1b5e20;fill-opacity:1;stroke:none;stroke-width:0.35704166"
             inkscape:connector-curvature="0" />
          <path
             sodipodi:nodetypes="cccscccccccccccccccscccccccssccccc"
             d="m 46.260056,30.330037 c -0.09174,0.413759 -0.224803,0.783353 -0.399226,1.108782 -0.174421,0.325429 -0.377791,0.613666 -0.610111,0.86471 -0.226637,0.246396 -0.473437,0.457925 -0.740402,0.634585 -0.266965,0.176662 -0.538855,0.323106 -0.815666,0.43933 -0.271131,0.111572 -0.540213,0.192932 -0.807243,0.24407 -0.262381,0.05113 -0.505147,0.0767 -0.728299,0.0767 h -2.79636 -1.30404 l 0.401955,-1.813102 h 4.1004 c 0.231923,-0.0186 0.44911,-0.06508 0.65156,-0.139469 0.208129,-0.07904 0.394034,-0.183635 0.557712,-0.313807 0.168328,-0.130167 0.309781,-0.285911 0.424359,-0.467222 0.115607,-0.185959 0.199694,-0.397488 0.252256,-0.634585 l 0.253541,-1.14365 c 0.02267,-0.102274 0.02573,-0.178985 0.0092,-0.230124 -0.0108,-0.05579 -0.03464,-0.0953 -0.07135,-0.118549 -0.03101,-0.02789 -0.06924,-0.04417 -0.114703,-0.04881 -0.04081,-0.0047 -0.07981,-0.007 -0.116997,-0.007 h -5.983247 l -1.074646,4.916335 h -1.813102 l 1.274079,-5.815912 c 0.02782,-0.125526 0.07735,-0.244071 0.148581,-0.355648 0.07122,-0.111572 0.155629,-0.209203 0.253214,-0.292885 0.102235,-0.08368 0.214294,-0.14877 0.336174,-0.195257 0.121882,-0.04649 0.247908,-0.06974 0.37808,-0.06974 h 6.882815 c 0.404461,0 0.729671,0.07438 0.97563,0.22315 0.246988,0.144119 0.431752,0.327753 0.554293,0.550905 0.128225,0.218501 0.20118,0.455599 0.218878,0.711294 0.02235,0.255694 0.0088,0.495116 -0.04069,0.718267 z"
             style="font-style:normal;font-variant:normal;font-weight:normal;font-stretch:normal;font-size:10.58333302px;line-height:1.25;font-family:Audiowide;-inkscape-font-specification:Audiowide;letter-spacing:0px;word-spacing:0px;fill:#43a047;fill-opacity:1;stroke:none;stroke-width:0.35704166"
             id="letter-d-fg"
             inkscape:connector-curvature="0" />
        </g>
        <g
           id="underscore"
           transform="matrix(5.8006839,0,0,5.8006839,-145.9187,-177.47566)">
          <g
             transform="matrix(1,0,-0.22169466,1,10.850587,-10.033015)"
             id="underscore-fg-transform"
             style="font-style:normal;font-weight:normal;font-size:11.86558533px;line-height:1.25;font-family:sans-serif;letter-spacing:0px;word-spacing:0px;fill:#9e9e9e;fill-opacity:1;stroke:none;stroke-width:0.29663962"
             aria-label="#_">
            <path
               inkscape:connector-curvature="0"
               id="underscore-fg"
               style="font-style:normal;font-variant:normal;font-weight:normal;font-stretch:normal;font-family:Audiowide;-inkscape-font-specification:Audiowide;fill:#9e9e9e;fill-opacity:1;stroke-width:0.29663962"
               d="m 51.942566,47.00148 h -6.622248 v -1.349942 h 6.622248 z" />
          </g>
          <g
             transform="matrix(1,0,-0.22169466,1,11.379495,-10.561928)"
             id="underscore-bg-transform"
             style="font-style:normal;font-weight:normal;font-size:11.86558533px;line-height:1.25;font-family:sans-serif;letter-spacing:0px;word-spacing:0px;fill:#212121;fill-opacity:1;stroke:none;stroke-width:0.29663962"
             aria-label="#_">
            <path
               style="font-style:normal;font-variant:normal;font-weight:normal;font-stretch:normal;font-family:Audiowide;-inkscape-font-specification:Audiowide;fill:#212121;fill-opacity:1;stroke-width:1.12115765"
               d="m 11.105469,61.589844 -2.0000002,2 H 34.134766 l -1.132813,5.103515 2,-2 1.132813,-5.103515 z"
               transform="matrix(0.26458333,0,0.05865671,0.26458333,38.769454,29.35564)"
               id="underscore-bg"
               inkscape:connector-curvature="0" />
          </g>
        </g>
      </g>
      <g
         transform="matrix(5.800684,0,0,5.800684,-126.49434,-177.47566)"
         id="root-3" />
    </g>
  </g>
  <animate
     xlink:href="#root"
     dur="12s"
     begin="0s" />
</svg>
